<?xml version="1.0" standalone="no"?>
<!DOCTYPE svg PUBLIC "-//W3C//DTD SVG 20010904//EN"
 "http://www.w3.org/TR/2001/REC-SVG-20010904/DTD/svg10.dtd">
<svg version="1.0" xmlns="http://www.w3.org/2000/svg"
 width="512.000000pt" height="512.000000pt" viewBox="0 0 512.000000 512.000000"
 preserveAspectRatio="xMidYMid meet">
<metadata>
Created by potrace 1.14, written by Peter Selinger 2001-2017
</metadata>
<g transform="translate(0.000000,512.000000) scale(0.100000,-0.100000)"
fill="#000000" stroke="none">
<path d="M1903 4489 c-145 -71 -220 -232 -183 -390 13 -52 81 -169 100 -169 5
0 15 -6 22 -14 21 -20 94 -56 116 -56 10 0 21 -3 25 -6 3 -4 31 -6 62 -6 31 0
59 2 62 6 4 3 17 6 29 6 59 0 172 90 208 165 10 22 22 47 27 56 10 21 9 188
-1 208 -4 9 -16 33 -26 54 -27 54 -85 111 -146 141 -46 23 -64 26 -152 26 -81
-1 -110 -5 -143 -21z"/>
<path d="M1760 2425 c0 -1095 0 -1126 -19 -1181 -27 -75 -58 -114 -117 -144
-43 -22 -62 -25 -151 -25 l-101 0 -6 -40 c-16 -116 -27 -279 -24 -345 l3 -75
45 -7 c69 -10 297 -9 374 2 141 21 291 101 385 207 58 65 117 174 132 245 6
26 13 48 16 48 3 0 22 -17 43 -37 21 -21 51 -49 66 -63 39 -34 181 -120 199
-120 7 0 16 -4 19 -9 3 -5 23 -12 43 -16 21 -4 43 -10 48 -15 6 -4 61 -16 124
-26 101 -16 126 -16 215 -5 167 21 176 23 176 31 0 4 20 11 45 14 25 4 45 11
45 17 0 5 8 9 18 9 9 1 35 12 57 26 22 13 48 27 58 30 9 4 17 10 17 14 0 5 10
12 21 15 12 4 63 48 113 99 70 70 103 113 143 186 65 118 108 237 120 325 3
22 9 45 14 51 12 15 11 562 -1 569 -6 3 -10 18 -10 33 0 28 -60 233 -70 242
-9 7 -24 43 -22 53 1 4 -2 7 -8 7 -5 0 -10 4 -10 9 0 53 -207 288 -305 347
-79 48 -184 94 -212 94 -11 0 -23 3 -27 7 -14 14 -140 31 -231 32 -95 1 -245
-18 -245 -31 0 -4 -10 -8 -22 -8 -13 -1 -41 -9 -63 -20 -22 -11 -44 -19 -48
-20 -20 0 -167 -108 -214 -157 -28 -29 -54 -53 -57 -53 -3 0 -6 182 -6 405 l0
405 -285 0 -285 0 0 -1125z m1210 72 c135 -52 236 -150 299 -292 49 -111 65
-313 35 -448 -15 -72 -72 -207 -86 -207 -5 0 -8 -5 -8 -10 0 -6 -12 -24 -27
-42 -27 -30 -36 -39 -85 -80 -44 -37 -147 -77 -230 -89 -70 -10 -96 -9 -167 4
-118 23 -240 84 -313 158 l-58 57 0 369 c0 355 1 370 20 391 11 12 20 24 20
27 0 15 91 84 150 114 101 53 169 69 285 69 87 -1 122 -5 165 -21z"/>
</g>
</svg>
